<?xml version="1.0" encoding="UTF-8"?>
<svg xmlns="http://www.w3.org/2000/svg" xmlns:xlink="http://www.w3.org/1999/xlink" width="20px" height="20px" viewBox="0 0 30 30" version="1.1">
<g id="surface1">
<path style=" stroke:none;fill-rule:nonzero;fill:rgb(0%,0%,0%);fill-opacity:1;" d="M 15 0 C 6.71875 0 0 6.714844 0 15 C 0 21.628906 4.296875 27.25 10.257812 29.234375 C 11.007812 29.371094 11.25 28.90625 11.25 28.511719 L 11.25 25.71875 C 7.078125 26.628906 6.207031 23.949219 6.207031 23.949219 C 5.527344 22.214844 4.542969 21.753906 4.542969 21.753906 C 3.179688 20.824219 4.644531 20.84375 4.644531 20.84375 C 6.152344 20.949219 6.945312 22.390625 6.945312 22.390625 C 8.28125 24.683594 10.453125 24.019531 11.308594 23.636719 C 11.445312 22.667969 11.832031 22.003906 12.261719 21.632812 C 8.929688 21.25 5.429688 19.964844 5.429688 14.21875 C 5.429688 12.578125 6.015625 11.242188 6.972656 10.191406 C 6.820312 9.8125 6.304688 8.285156 7.121094 6.222656 C 7.121094 6.222656 8.378906 5.820312 11.246094 7.757812 C 12.441406 7.425781 13.726562 7.261719 15 7.253906 C 16.273438 7.261719 17.558594 7.425781 18.757812 7.757812 C 21.621094 5.820312 22.878906 6.222656 22.878906 6.222656 C 23.695312 8.289062 23.179688 9.8125 23.027344 10.191406 C 23.988281 11.242188 24.570312 12.578125 24.570312 14.21875 C 24.570312 19.980469 21.0625 21.246094 17.722656 21.617188 C 18.257812 22.082031 18.75 22.996094 18.75 24.394531 L 18.75 28.511719 C 18.75 28.910156 18.988281 29.378906 19.75 29.234375 C 25.707031 27.246094 30 21.625 30 15 C 30 6.714844 23.285156 0 15 0 Z M 15 0 "/>
</g>
</svg>
